<?xml version="1.0" encoding="UTF-8"?>
<svg id="Layer_2" xmlns="http://www.w3.org/2000/svg" version="1.1" xmlns:xlink="http://www.w3.org/1999/xlink" viewBox="0 0 500 500">
  <!-- Generator: Adobe Illustrator 30.1.0, SVG Export Plug-In . SVG Version: 2.1.1 Build 136)  -->
  <defs>
    <style>
      .st0 {
        fill: url(#linear-gradient2);
      }

      .st0, .st1, .st2, .st3 {
        opacity: .22;
      }

      .st1 {
        fill: url(#New_Gradient_Swatch_5);
      }

      .st2 {
        fill: url(#linear-gradient1);
      }

      .st3 {
        fill: url(#linear-gradient);
      }

      .st4 {
        fill: #e78ca2;
      }
    </style>
    <linearGradient id="New_Gradient_Swatch_5" data-name="New Gradient Swatch 5" x1="-154.01" y1="123.26" x2="50.16" y2="123.26" gradientTransform="translate(315.71) rotate(-180) scale(1 -1)" gradientUnits="userSpaceOnUse">
      <stop offset="0" stop-color="#fed2a1"/>
      <stop offset="1" stop-color="#fff"/>
    </linearGradient>
    <linearGradient id="linear-gradient" x1="247.44" y1="435.37" x2="80.52" y2="268.45" gradientTransform="translate(315.71) rotate(-180) scale(1 -1)" gradientUnits="userSpaceOnUse">
      <stop offset="0" stop-color="#fed2a1"/>
      <stop offset="1" stop-color="#fff"/>
    </linearGradient>
    <linearGradient id="linear-gradient1" x1="-126.87" y1="385.01" x2="-26.8" y2="385.01" xlink:href="#linear-gradient"/>
    <linearGradient id="linear-gradient2" x1="159.12" y1="87.38" x2="261.18" y2="87.38" xlink:href="#linear-gradient"/>
  </defs>
  <rect class="st4" x="0" y="0" width="500" height="500" transform="translate(500 500) rotate(-180)"/>
  <path class="st1" d="M387.14,222.13l-38.29-37.33-50.35,18.48c-6.36,2.33-13.39.58-17.92-4.46-4.52-5.05-5.5-12.23-2.48-18.3l23.87-48.03-32.93-42.13c-4.15-5.32-4.66-12.52-1.28-18.36,3.38-5.84,9.87-9,16.56-8.04l53.18,7.58,30.14-44.59c3.79-5.6,10.51-8.3,17.12-6.86,6.61,1.44,11.61,6.68,12.73,13.35l8.85,52.69,51.4,14.55c6.51,1.84,11.17,7.38,11.88,14.11.71,6.73-2.7,13.11-8.69,16.27l-47.61,25.09,1.74,53.69c.22,6.74-3.63,12.86-9.8,15.58-2.15.95-4.42,1.41-6.66,1.41-4.19,0-8.31-1.61-11.46-4.68ZM378.41,34.23l-34.69,51.33-61.23-8.73c-2.08-.3-3.12,1.08-3.47,1.69-.35.61-1.03,2.19.27,3.85l37.97,48.59-27.51,55.37c-.94,1.89.05,3.31.52,3.83s1.77,1.66,3.75.94l58.04-21.31,44.15,43.04c1.5,1.47,3.16.97,3.8.69.64-.28,2.12-1.17,2.05-3.27l-2-61.82,54.81-28.88c1.86-.98,1.89-2.71,1.82-3.41s-.46-2.38-2.49-2.96l-59.32-16.79-10.21-60.8c-.35-2.08-1.98-2.65-2.67-2.8-.19-.04-.47-.09-.8-.09-.82,0-1.94.27-2.79,1.52Z"/>
  <path class="st3" d="M113.43,477.23c-6.55-1.65-11.37-7.05-12.27-13.75l-8.77-65.13-62.5-20.31c-6.43-2.09-10.87-7.8-11.33-14.54-.45-6.74,3.19-13,9.29-15.92l59.23-28.47v-65.72c0-6.76,4.05-12.75,10.33-15.27,6.28-2.52,13.35-.98,18.01,3.91l45.38,47.54,62.5-20.31c6.43-2.09,13.38-.09,17.71,5.11,4.33,5.19,5.05,12.39,1.85,18.34l-31.19,57.85,38.63,53.17c3.97,5.47,4.22,12.7.62,18.42-3.6,5.72-10.22,8.64-16.87,7.43l-64.65-11.78-38.63,53.17h0c-3.15,4.34-8.09,6.79-13.26,6.79-1.35,0-2.71-.17-4.07-.51ZM163.68,403.52l72.7,13.25c2.07.38,3.16-.96,3.54-1.56.37-.59,1.11-2.16-.13-3.86l-43.43-59.78,35.07-65.04c1-1.85.06-3.31-.39-3.84-.45-.54-1.71-1.72-3.71-1.07l-70.28,22.83-51.02-53.45c-1.45-1.52-3.12-1.08-3.77-.82-.65.26-2.17,1.09-2.17,3.2v73.89s-66.6,32.01-66.6,32.01c-1.9.91-1.99,2.64-1.95,3.34s.37,2.4,2.37,3.05l70.28,22.83,9.86,73.23c.28,2.09,1.89,2.71,2.57,2.88.68.17,2.39.39,3.63-1.32l43.43-59.78Z"/>
  <path class="st2" d="M367.72,432.39c-5.5-3.17-8.47-9.29-7.57-15.57l2.23-15.51-13.01-8.72c-5.27-3.53-7.83-9.83-6.51-16.04,1.32-6.21,6.21-10.92,12.47-12.01l15.44-2.68,4.28-15.07c1.73-6.11,6.93-10.48,13.25-11.15,6.31-.67,12.31,2.54,15.27,8.15l7.32,13.86,15.66-.59c6.35-.24,12.11,3.35,14.69,9.15,2.58,5.8,1.39,12.49-3.03,17.04l-10.92,11.24,5.4,14.71c2.19,5.96.55,12.56-4.16,16.8-4.72,4.25-11.45,5.18-17.15,2.38l-14.06-6.91-12.32,9.68c-2.8,2.2-6.16,3.32-9.53,3.32-2.65,0-5.32-.69-7.73-2.08ZM416.22,418.51c2.51,1.23,4.41-.21,4.94-.69.52-.47,2.16-2.22,1.2-4.84l-7.79-21.2,15.74-16.2c1.94-2,1.16-4.26.87-4.91-.29-.64-1.42-2.77-4.23-2.63l-22.57.85-10.55-19.97c-1.3-2.47-3.69-2.42-4.4-2.35-.7.07-3.05.52-3.81,3.21l-6.16,21.73-22.25,3.86c-2.75.48-3.44,2.77-3.59,3.46-.15.69-.45,3.06,1.87,4.62l18.76,12.58-3.21,22.36c-.4,2.76,1.57,4.13,2.18,4.48.61.35,2.78,1.37,4.97-.35l17.76-13.96,20.27,9.96Z"/>
  <path class="st0" d="M80.24,135.63c-5.85-3.38-9.02-9.89-8.06-16.58l2.14-14.89-12.49-8.37c-5.62-3.76-8.33-10.47-6.93-17.08,1.41-6.61,6.62-11.63,13.28-12.79l14.82-2.57,4.1-14.47c1.84-6.5,7.38-11.16,14.1-11.87,6.73-.7,13.11,2.7,16.26,8.68l7.02,13.3,15.03-.57c6.78-.26,12.9,3.57,15.65,9.74,2.75,6.18,1.48,13.3-3.23,18.15l-10.48,10.79,5.18,14.12c2.33,6.35.59,13.37-4.43,17.89-5.02,4.52-12.19,5.52-18.26,2.54l-13.5-6.63-11.82,9.29c-2.98,2.34-6.55,3.53-10.15,3.53-2.82,0-5.66-.73-8.23-2.22ZM129.67,119.98c1.89.93,3.3-.06,3.83-.53.52-.47,1.65-1.77.93-3.75l-8-21.79,16.17-16.65c1.47-1.51.96-3.16.68-3.8s-1.17-2.13-3.28-2.04l-23.2.88-10.84-20.53c-.98-1.86-2.71-1.89-3.41-1.82-.7.07-2.38.46-2.96,2.49l-6.33,22.33-22.87,3.97c-2.07.36-2.64,1.99-2.78,2.68-.15.69-.3,2.41,1.45,3.58l19.28,12.93-3.3,22.98c-.3,2.08,1.08,3.12,1.69,3.47.61.35,2.2,1.03,3.85-.27l18.25-14.34,20.84,10.24Z"/>
</svg>