<?xml version="1.0" encoding="UTF-8" standalone="no"?>
<svg
   class="svg-icon"
   style="overflow:hidden;fill:currentColor"
   viewBox="0 0 853.33331 853.33331"
   version="1.1"
   id="svg1"
   sodipodi:docname="instagram-53.svg"
   width="853.33331"
   height="853.33331"
   inkscape:version="1.3.2 (091e20e, 2023-11-25, custom)"
   xmlns:inkscape="http://www.inkscape.org/namespaces/inkscape"
   xmlns:sodipodi="http://sodipodi.sourceforge.net/DTD/sodipodi-0.dtd"
   xmlns="http://www.w3.org/2000/svg"
   xmlns:svg="http://www.w3.org/2000/svg">
  <defs
     id="defs1" />
  <sodipodi:namedview
     id="namedview1"
     pagecolor="#505050"
     bordercolor="#ffffff"
     borderopacity="1"
     inkscape:showpageshadow="0"
     inkscape:pageopacity="0"
     inkscape:pagecheckerboard="1"
     inkscape:deskcolor="#d1d1d1"
     inkscape:zoom="0.72167969"
     inkscape:cx="426.08931"
     inkscape:cy="423.318"
     inkscape:window-width="1920"
     inkscape:window-height="991"
     inkscape:window-x="-9"
     inkscape:window-y="-9"
     inkscape:window-maximized="1"
     inkscape:current-layer="svg1" />
  <path
     d="M 426.66667,0 C 310.784,0 296.27734,0.512 250.752,2.56 205.35467,4.650667 174.336,11.861333 147.2,22.399997 A 209.10933,209.10933 0 0 0 71.594667,71.594667 209.152,209.152 0 0 0 22.399997,147.2 C 11.861333,174.336 4.650667,205.35467 2.56,250.752 0.469334,296.27734 0,310.784 0,426.66667 0,542.54934 0.469333,557.056 2.56,602.58134 c 2.090667,45.39733 9.301333,76.416 19.839997,103.552 A 209.19467,209.19467 0 0 0 71.594667,781.73867 209.19467,209.19467 0 0 0 147.2,830.93334 c 27.136,10.53866 58.15467,17.74933 103.552,19.84 45.52534,2.048 60.032,2.56 175.91467,2.56 115.88267,0 130.38933,-0.512 175.91467,-2.56 45.39733,-2.09067 76.416,-9.30134 103.552,-19.84 a 209.152,209.152 0 0 0 75.60533,-49.19467 209.152,209.152 0 0 0 49.19467,-75.60533 c 10.53866,-27.136 17.74933,-58.15467 19.84,-103.552 2.048,-45.52534 2.56,-60.032 2.56,-175.91467 0,-115.88267 -0.512,-130.38933 -2.56,-175.91467 -2.09067,-45.39733 -9.30134,-76.416 -19.84,-103.552 A 209.152,209.152 0 0 0 781.73867,71.594667 209.10933,209.10933 0 0 0 706.13334,22.399997 C 678.99734,11.861333 647.97867,4.650667 602.58134,2.56 557.056,0.512 542.54934,0 426.66667,0 m 0,76.885337 c 113.92,0 127.40267,0.42666 172.37333,2.47466 41.64267,1.92 64.21334,8.832 79.27467,14.67734 19.88267,7.765333 34.13333,17.024003 49.06667,31.914663 14.93333,14.93334 24.14933,29.184 31.91466,49.06667 5.80267,15.06133 12.8,37.632 14.67734,79.232 2.048,45.01333 2.47466,58.45333 2.47466,172.416 0,113.92 -0.42666,127.40267 -2.47466,172.37333 -1.92,41.64267 -8.87467,64.21334 -14.67734,79.27467 a 132.26667,132.26667 0 0 1 -31.91466,49.06667 c -14.93334,14.93333 -29.184,24.14933 -49.06667,31.91466 -15.06133,5.80267 -37.632,12.8 -79.232,14.67734 -44.97067,2.048 -58.45333,2.47466 -172.416,2.47466 -113.92,0 -127.44533,-0.42666 -172.37333,-2.47466 -41.64267,-1.92 -64.21334,-8.87467 -79.27467,-14.67734 A 132.18133,132.18133 0 0 1 125.952,727.38134 132.18133,132.18133 0 0 1 94.037337,678.31467 c -5.84534,-15.06133 -12.8,-37.632 -14.67734,-79.232 -2.048,-45.01333 -2.47466,-58.45333 -2.47466,-172.416 0,-113.92 0.42666,-127.40267 2.47466,-172.37333 1.92,-41.64267 8.832,-64.21334 14.67734,-79.27467 C 101.80267,155.136 111.06134,140.88534 125.952,125.952 c 14.93334,-14.93333 29.184,-24.14933 49.06667,-31.914663 15.06133,-5.84534 37.632,-12.8 79.232,-14.67734 45.01333,-2.048 58.45333,-2.47466 172.416,-2.47466 m 0,491.989333 a 142.208,142.208 0 1 1 0,-284.416 142.208,142.208 0 0 1 0,284.416 m 0,-361.30133 a 219.09333,219.09333 0 1 0 0,438.18666 219.09333,219.09333 0 0 0 0,-438.18666 M 705.62134,198.912 a 51.2,51.2 0 1 1 -102.4,0 51.2,51.2 0 0 1 102.4,0"
     fill="#000000"
     id="path1" />
</svg>
